<mxfile host="app.diagrams.net" modified="2021-02-14T00:49:54.682Z" agent="5.0 (Windows NT 10.0; Win64; x64) AppleWebKit/537.36 (KHTML, like Gecko) Chrome/88.0.4324.150 Safari/537.36" etag="6KCk7MbzCtV5M4dl6q3l" version="14.2.9" type="github" pages="2">
  <diagram id="4GrkxdD4KADzTD2SFAFI" name="Page-1">
    <mxGraphModel dx="1727" dy="857" grid="1" gridSize="10" guides="1" tooltips="1" connect="1" arrows="1" fold="1" page="1" pageScale="1" pageWidth="850" pageHeight="1100" math="0" shadow="0">
      <root>
        <mxCell id="0" />
        <mxCell id="1" parent="0" />
        <mxCell id="Fd3TnPo27QrgVxgfmO0y-1" value="Staff" style="shape=umlActor;verticalLabelPosition=bottom;verticalAlign=top;html=1;outlineConnect=0;" vertex="1" parent="1">
          <mxGeometry x="40" y="40" width="30" height="60" as="geometry" />
        </mxCell>
        <mxCell id="Fd3TnPo27QrgVxgfmO0y-2" value="" style="endArrow=classic;html=1;" edge="1" parent="1">
          <mxGeometry width="50" height="50" relative="1" as="geometry">
            <mxPoint x="80" y="80" as="sourcePoint" />
            <mxPoint x="170" y="80" as="targetPoint" />
          </mxGeometry>
        </mxCell>
        <mxCell id="Fd3TnPo27QrgVxgfmO0y-3" value="" style="rounded=0;whiteSpace=wrap;html=1;" vertex="1" parent="1">
          <mxGeometry x="170" y="54" width="90" height="50" as="geometry" />
        </mxCell>
        <mxCell id="Fd3TnPo27QrgVxgfmO0y-4" value="Website" style="text;html=1;strokeColor=none;fillColor=none;align=center;verticalAlign=middle;whiteSpace=wrap;rounded=0;" vertex="1" parent="1">
          <mxGeometry x="195" y="69" width="40" height="20" as="geometry" />
        </mxCell>
        <mxCell id="Fd3TnPo27QrgVxgfmO0y-5" value="" style="endArrow=classic;html=1;" edge="1" parent="1">
          <mxGeometry width="50" height="50" relative="1" as="geometry">
            <mxPoint x="260" y="80" as="sourcePoint" />
            <mxPoint x="350" y="80" as="targetPoint" />
          </mxGeometry>
        </mxCell>
        <mxCell id="Fd3TnPo27QrgVxgfmO0y-6" value="" style="rounded=0;whiteSpace=wrap;html=1;" vertex="1" parent="1">
          <mxGeometry x="350" y="54" width="90" height="50" as="geometry" />
        </mxCell>
        <mxCell id="Fd3TnPo27QrgVxgfmO0y-7" value="Server" style="text;html=1;strokeColor=none;fillColor=none;align=center;verticalAlign=middle;whiteSpace=wrap;rounded=0;" vertex="1" parent="1">
          <mxGeometry x="375" y="69" width="40" height="20" as="geometry" />
        </mxCell>
        <mxCell id="Fd3TnPo27QrgVxgfmO0y-8" value="" style="endArrow=classic;html=1;" edge="1" parent="1">
          <mxGeometry width="50" height="50" relative="1" as="geometry">
            <mxPoint x="440" y="80" as="sourcePoint" />
            <mxPoint x="530" y="80" as="targetPoint" />
          </mxGeometry>
        </mxCell>
        <mxCell id="Fd3TnPo27QrgVxgfmO0y-9" value="" style="rounded=0;whiteSpace=wrap;html=1;" vertex="1" parent="1">
          <mxGeometry x="530" y="54" width="90" height="50" as="geometry" />
        </mxCell>
        <mxCell id="Fd3TnPo27QrgVxgfmO0y-10" value="Website" style="text;html=1;strokeColor=none;fillColor=none;align=center;verticalAlign=middle;whiteSpace=wrap;rounded=0;" vertex="1" parent="1">
          <mxGeometry x="555" y="69" width="40" height="20" as="geometry" />
        </mxCell>
        <mxCell id="Fd3TnPo27QrgVxgfmO0y-11" value="" style="endArrow=classic;html=1;exitX=0.5;exitY=1;exitDx=0;exitDy=0;" edge="1" parent="1" source="Fd3TnPo27QrgVxgfmO0y-9">
          <mxGeometry width="50" height="50" relative="1" as="geometry">
            <mxPoint x="380" y="160" as="sourcePoint" />
            <mxPoint x="575" y="170" as="targetPoint" />
          </mxGeometry>
        </mxCell>
        <mxCell id="Fd3TnPo27QrgVxgfmO0y-12" value="" style="rounded=0;whiteSpace=wrap;html=1;" vertex="1" parent="1">
          <mxGeometry x="530" y="170" width="90" height="50" as="geometry" />
        </mxCell>
        <mxCell id="Fd3TnPo27QrgVxgfmO0y-13" value="Server" style="text;html=1;strokeColor=none;fillColor=none;align=center;verticalAlign=middle;whiteSpace=wrap;rounded=0;" vertex="1" parent="1">
          <mxGeometry x="555" y="185" width="40" height="20" as="geometry" />
        </mxCell>
        <mxCell id="Fd3TnPo27QrgVxgfmO0y-14" value="" style="endArrow=classic;html=1;exitX=0;exitY=0.5;exitDx=0;exitDy=0;entryX=1;entryY=0.5;entryDx=0;entryDy=0;" edge="1" parent="1" source="Fd3TnPo27QrgVxgfmO0y-12" target="Fd3TnPo27QrgVxgfmO0y-16">
          <mxGeometry width="50" height="50" relative="1" as="geometry">
            <mxPoint x="380" y="160" as="sourcePoint" />
            <mxPoint x="450" y="195" as="targetPoint" />
          </mxGeometry>
        </mxCell>
        <mxCell id="Fd3TnPo27QrgVxgfmO0y-20" style="edgeStyle=orthogonalEdgeStyle;rounded=0;orthogonalLoop=1;jettySize=auto;html=1;" edge="1" parent="1">
          <mxGeometry relative="1" as="geometry">
            <mxPoint x="360" y="195" as="targetPoint" />
            <mxPoint x="500.0000000000001" y="195" as="sourcePoint" />
          </mxGeometry>
        </mxCell>
        <mxCell id="Fd3TnPo27QrgVxgfmO0y-16" value="" style="rounded=0;whiteSpace=wrap;html=1;" vertex="1" parent="1">
          <mxGeometry x="400" y="170" width="90" height="50" as="geometry" />
        </mxCell>
        <mxCell id="Fd3TnPo27QrgVxgfmO0y-17" value="Class Records" style="text;html=1;strokeColor=none;fillColor=none;align=center;verticalAlign=middle;whiteSpace=wrap;rounded=0;" vertex="1" parent="1">
          <mxGeometry x="425" y="185" width="40" height="20" as="geometry" />
        </mxCell>
        <mxCell id="iiKzWFBmPBKAXOriVSYP-5" style="edgeStyle=orthogonalEdgeStyle;rounded=0;orthogonalLoop=1;jettySize=auto;html=1;entryX=1;entryY=0.5;entryDx=0;entryDy=0;" edge="1" parent="1" source="Fd3TnPo27QrgVxgfmO0y-18" target="iiKzWFBmPBKAXOriVSYP-3">
          <mxGeometry relative="1" as="geometry" />
        </mxCell>
        <mxCell id="Fd3TnPo27QrgVxgfmO0y-18" value="" style="rounded=0;whiteSpace=wrap;html=1;" vertex="1" parent="1">
          <mxGeometry x="270" y="170" width="90" height="50" as="geometry" />
        </mxCell>
        <mxCell id="Fd3TnPo27QrgVxgfmO0y-19" value="Server" style="text;html=1;strokeColor=none;fillColor=none;align=center;verticalAlign=middle;whiteSpace=wrap;rounded=0;" vertex="1" parent="1">
          <mxGeometry x="295" y="185" width="40" height="20" as="geometry" />
        </mxCell>
        <mxCell id="iiKzWFBmPBKAXOriVSYP-10" style="edgeStyle=orthogonalEdgeStyle;rounded=0;orthogonalLoop=1;jettySize=auto;html=1;entryX=1;entryY=0.5;entryDx=0;entryDy=0;" edge="1" parent="1" source="iiKzWFBmPBKAXOriVSYP-3" target="iiKzWFBmPBKAXOriVSYP-8">
          <mxGeometry relative="1" as="geometry" />
        </mxCell>
        <mxCell id="iiKzWFBmPBKAXOriVSYP-3" value="" style="rounded=0;whiteSpace=wrap;html=1;" vertex="1" parent="1">
          <mxGeometry x="145" y="170" width="90" height="50" as="geometry" />
        </mxCell>
        <mxCell id="iiKzWFBmPBKAXOriVSYP-4" value="Website" style="text;html=1;strokeColor=none;fillColor=none;align=center;verticalAlign=middle;whiteSpace=wrap;rounded=0;" vertex="1" parent="1">
          <mxGeometry x="170" y="185" width="40" height="20" as="geometry" />
        </mxCell>
        <mxCell id="iiKzWFBmPBKAXOriVSYP-8" value="" style="rounded=0;whiteSpace=wrap;html=1;" vertex="1" parent="1">
          <mxGeometry x="20" y="170" width="90" height="50" as="geometry" />
        </mxCell>
        <mxCell id="iiKzWFBmPBKAXOriVSYP-9" value="User" style="text;html=1;strokeColor=none;fillColor=none;align=center;verticalAlign=middle;whiteSpace=wrap;rounded=0;" vertex="1" parent="1">
          <mxGeometry x="45" y="185" width="40" height="20" as="geometry" />
        </mxCell>
        <mxCell id="iiKzWFBmPBKAXOriVSYP-12" style="edgeStyle=orthogonalEdgeStyle;rounded=0;orthogonalLoop=1;jettySize=auto;html=1;entryX=0.5;entryY=1;entryDx=0;entryDy=0;" edge="1" parent="1" source="iiKzWFBmPBKAXOriVSYP-11" target="iiKzWFBmPBKAXOriVSYP-8">
          <mxGeometry relative="1" as="geometry" />
        </mxCell>
        <mxCell id="iiKzWFBmPBKAXOriVSYP-11" value="Student" style="shape=umlActor;verticalLabelPosition=bottom;verticalAlign=top;html=1;outlineConnect=0;" vertex="1" parent="1">
          <mxGeometry x="50" y="270" width="30" height="60" as="geometry" />
        </mxCell>
        <mxCell id="iiKzWFBmPBKAXOriVSYP-13" value="1:1 Login&lt;br&gt;1:2 Validation" style="text;html=1;strokeColor=none;fillColor=none;align=center;verticalAlign=middle;whiteSpace=wrap;rounded=0;" vertex="1" parent="1">
          <mxGeometry x="170" y="20" width="90" height="20" as="geometry" />
        </mxCell>
        <mxCell id="iiKzWFBmPBKAXOriVSYP-14" value="2: Display Register Page" style="text;html=1;strokeColor=none;fillColor=none;align=center;verticalAlign=middle;whiteSpace=wrap;rounded=0;" vertex="1" parent="1">
          <mxGeometry x="350" y="20" width="90" height="20" as="geometry" />
        </mxCell>
        <mxCell id="iiKzWFBmPBKAXOriVSYP-15" value="3:1 Display Input Fields&lt;br&gt;3:2 Send Info" style="text;html=1;strokeColor=none;fillColor=none;align=center;verticalAlign=middle;whiteSpace=wrap;rounded=0;" vertex="1" parent="1">
          <mxGeometry x="530" y="20" width="90" height="20" as="geometry" />
        </mxCell>
        <mxCell id="iiKzWFBmPBKAXOriVSYP-16" value="4: Verify Info" style="text;html=1;strokeColor=none;fillColor=none;align=center;verticalAlign=middle;whiteSpace=wrap;rounded=0;" vertex="1" parent="1">
          <mxGeometry x="530" y="230" width="90" height="20" as="geometry" />
        </mxCell>
        <mxCell id="iiKzWFBmPBKAXOriVSYP-17" value="5:1 Verify Info&lt;br&gt;5:2 Select Classes&lt;br&gt;5:3 Save info" style="text;html=1;strokeColor=none;fillColor=none;align=center;verticalAlign=middle;whiteSpace=wrap;rounded=0;" vertex="1" parent="1">
          <mxGeometry x="400" y="250" width="90" height="20" as="geometry" />
        </mxCell>
        <mxCell id="iiKzWFBmPBKAXOriVSYP-18" value="6: return Info" style="text;html=1;strokeColor=none;fillColor=none;align=center;verticalAlign=middle;whiteSpace=wrap;rounded=0;" vertex="1" parent="1">
          <mxGeometry x="270" y="230" width="90" height="20" as="geometry" />
        </mxCell>
        <mxCell id="iiKzWFBmPBKAXOriVSYP-19" value="7: Return Info" style="text;html=1;strokeColor=none;fillColor=none;align=center;verticalAlign=middle;whiteSpace=wrap;rounded=0;" vertex="1" parent="1">
          <mxGeometry x="145" y="240" width="90" height="20" as="geometry" />
        </mxCell>
        <mxCell id="iiKzWFBmPBKAXOriVSYP-20" value="8: Confirmation Message" style="text;html=1;strokeColor=none;fillColor=none;align=center;verticalAlign=middle;whiteSpace=wrap;rounded=0;" vertex="1" parent="1">
          <mxGeometry x="20" y="140" width="90" height="20" as="geometry" />
        </mxCell>
      </root>
    </mxGraphModel>
  </diagram>
  <diagram id="KbN5XfwqzbEARcTn31UQ" name="Page-2">
    <mxGraphModel dx="364" dy="584" grid="1" gridSize="10" guides="1" tooltips="1" connect="1" arrows="1" fold="1" page="1" pageScale="1" pageWidth="850" pageHeight="1100" math="0" shadow="0">
      <root>
        <mxCell id="V34y5Nfk01AdZzsgAtXa-0" />
        <mxCell id="V34y5Nfk01AdZzsgAtXa-1" parent="V34y5Nfk01AdZzsgAtXa-0" />
      </root>
    </mxGraphModel>
  </diagram>
</mxfile>
